<?xml version="1.0" standalone="no"?><!DOCTYPE svg PUBLIC "-//W3C//DTD SVG 1.1//EN" "http://www.w3.org/Graphics/SVG/1.1/DTD/svg11.dtd"><svg t="1516067087981" class="icon" style="" viewBox="0 0 1024 1024" version="1.1" xmlns="http://www.w3.org/2000/svg" p-id="1456" xmlns:xlink="http://www.w3.org/1999/xlink" width="200" height="200"><defs><style type="text/css"></style></defs><path d="M785.82129392 444.73679015L785.82129392 444.73679015l0-67.52365729 0 0c69.25837317 0 125.40268685-56.14270645 125.40268685-125.40268684 0-69.25676437-56.14270645-125.39947083-125.40268685-125.39947083-45.64277731 0-85.20038684 24.63488137-107.13592973 61.09122519l-73.97538239 0c26.57699055-74.76155109 97.23246021-128.61488405 181.11131212-128.61488406 106.55072386 0 192.92473692 86.37401306 192.92473692 192.92473692S892.37201778 444.73679015 785.82129392 444.73679015zM78.4322007 251.81044602l771.69733887 0L528.58670415 637.66152705l0 257.23298256 192.92795137 0 0 64.30824564L207.04708476 959.20275525l0-64.30824564 192.92473693 0 0-257.23298256L78.4322007 251.81044602z" p-id="1457"></path></svg>