<?xml version="1.0" standalone="no"?><!DOCTYPE svg PUBLIC "-//W3C//DTD SVG 1.1//EN" "http://www.w3.org/Graphics/SVG/1.1/DTD/svg11.dtd"><svg t="1521433827053" class="icon" style="" viewBox="0 0 1024 1024" version="1.1" xmlns="http://www.w3.org/2000/svg" p-id="1288" xmlns:xlink="http://www.w3.org/1999/xlink" width="64" height="64"><defs><style type="text/css"></style></defs><path d="M139.12768719 514.70824344c0-52.50424219 10.27943062-103.42843594 30.55144594-151.35658032 19.58512125-46.30300688 47.62594969-87.89176969 83.34445218-123.61027218 35.7185025-35.7185025 77.30726531-63.75933094 123.60931313-83.34445219 47.92910438-20.27201531 98.85233813-30.55144594 151.35658031-30.55144594 79.87160719 0 157.39856344 24.56222719 222.30335813 69.80707125l-93.62868 15.77938125c-10.30533281 1.7364225-17.25102375 11.49876375-15.51460125 21.8031375 1.55798344 9.24045469 9.56759344 15.77938125 18.63632437 15.77938125 1.04473125 0 2.10289406-0.08634187 3.16681313-0.26574l137.47095468-23.16829219c10.30533281-1.7364225 17.25006469-11.49780469 15.51460125-21.80217843L794.59560031 77.11437219c-1.7373825-10.30341469-11.48821125-17.24814562-21.8031375-15.51460125-10.30533281 1.7364225-17.25006469 11.49780469-15.51460125 21.80217844l13.55273157 80.42994843c-71.00050125-49.16090906-155.6525475-75.82890844-242.84111344-75.82890843-57.59646937 0-113.47954125 11.28482906-166.09794563 33.54077906-50.81386781 21.49230844-96.44533031 52.25673-135.62708437 91.438485-39.181755 39.181755-69.94617656 84.81321656-91.438485 135.62708437-22.25595 52.61840437-33.54077906 108.50243531-33.54077907 166.09794563 0 66.60955875 14.92651969 130.41685781 44.36607938 189.65093625 3.3068775 6.65308875 10.00121906 10.50391875 16.9584225 10.50391875 2.82912187 0 5.70141469-0.63604875 8.40678-1.98201656 9.358455-4.64996719 13.17378844-16.0067475 8.52286125-25.3652025C152.72454875 633.56302063 139.12768719 575.42163969 139.12768719 514.70824344zM912.40180719 326.44164875c-4.64900812-9.358455-16.00482844-13.17570656-25.3652025-8.52478031-9.358455 4.64996719-13.1747475 16.00578844-8.52478032 25.3652025 26.81190188 53.95765687 40.40684437 112.10095594 40.40684438 172.81435218 0 52.50328312-10.27847156 103.42651688-30.55144594 151.35370219-19.58416219 46.30300688-47.62594969 87.89080969-83.34445219 123.60931313-35.7185025 35.71754344-77.30630625 63.75933094-123.60931312 83.34349312-47.92910438 20.27201531-98.85233813 30.55144594-151.35658031 30.55144594-79.87160719 0-157.39664531-24.56126719-222.30144-69.80611125l93.62580187-15.77554406c10.30437375-1.7364225 17.25102375-11.49780469 15.51460125-21.8031375-1.7364225-10.30533281-11.49492656-17.24430844-21.80217844-15.51460125L257.62366719 805.21751844c-4.94832469 0.83463375-9.36325125 3.60043875-12.27199969 7.6882275-2.9097075 4.08874781-4.07627625 9.16562531-3.2416425 14.11491l21.34360875 126.66867844c1.55702437 9.24141469 9.56663344 15.78130031 18.63536531 15.78034125 1.04377219 0 2.10385313-0.08730094 3.16681313-0.26574 10.30437375-1.7364225 17.25102375-11.49780469 15.51460125-21.8031375l-13.55273156-80.43474563c71.00146125 49.16090906 155.6525475 75.82890844 242.84207343 75.82890844 57.59551031 0 113.47954125-11.28387 166.09794563-33.53982 50.81386781-21.49230844 96.44628937-52.25768906 135.62708437-91.438485 39.181755-39.181755 69.94713562-84.8122575 91.43944407-135.62612531 22.25595-52.61744531 33.53982-108.50051625 33.53982-166.09602657C956.76213125 449.48782344 941.83657063 385.67860625 912.40180719 326.44164875z" p-id="1289"></path></svg>