<?xml version="1.0" standalone="no"?><!DOCTYPE svg PUBLIC "-//W3C//DTD SVG 1.1//EN" "http://www.w3.org/Graphics/SVG/1.1/DTD/svg11.dtd"><svg t="1516072581724" class="icon" style="" viewBox="0 0 1024 1024" version="1.1" xmlns="http://www.w3.org/2000/svg" p-id="1556" xmlns:xlink="http://www.w3.org/1999/xlink" width="200" height="200"><defs><style type="text/css"></style></defs><path d="M512 962C263.465 962 62 760.535 62 512 62 263.465 263.465 62 512 62 760.535 62 962 263.465 962 512 962 760.535 760.535 962 512 962ZM782 332L557 332 557 422 586.835 422C561.68 483.335 536.48 543.725 512 601.235 487.52 543.725 462.32 483.335 437.165 422L467 422 467 332 242 332 242 422 340.1 422C432.305 647.855 512 827 512 827 512 827 591.65 647.855 683.9 422L782 422 782 332Z" p-id="1557"></path></svg>