<?xml version="1.0" standalone="no"?><!DOCTYPE svg PUBLIC "-//W3C//DTD SVG 1.1//EN" "http://www.w3.org/Graphics/SVG/1.1/DTD/svg11.dtd"><svg t="1516072578311" class="icon" style="" viewBox="0 0 1024 1024" version="1.1" xmlns="http://www.w3.org/2000/svg" p-id="1428" xmlns:xlink="http://www.w3.org/1999/xlink" width="200" height="200"><defs><style type="text/css"></style></defs><path d="M782 945.125H242c-56.25 0-95.625-50.625-95.625-106.875V568.25c0-61.875 39.375-112.5 95.625-112.5V377C242 213.875 360.125 78.875 512 78.875c151.875 0 270 135 270 298.125 0 16.875-11.25 28.125-22.5 28.125s-22.5-11.25-22.5-28.125c0-135-101.25-241.875-219.375-241.875-123.75 0-219.375 106.875-219.375 241.875V455.75h489.375c56.25 0 95.625 50.625 95.625 106.875v270c-5.625 67.5-45 112.5-101.25 112.5z m50.625-376.875c0-28.125-22.5-56.25-50.625-56.25H242c-28.125 0-50.625 22.5-50.625 56.25v270c0 28.125 22.5 56.25 50.625 56.25h540c28.125 0 50.625-22.5 50.625-56.25V568.25z m-298.125 157.5v84.375c0 16.875-11.25 28.125-22.5 28.125s-22.5-11.25-22.5-28.125v-84.375c-28.125-11.25-50.625-39.375-50.625-73.125C438.875 602 472.625 568.25 512 568.25c39.375 0 73.125 33.75 73.125 78.75 0 33.75-22.5 67.5-50.625 78.75zM512 618.875c-11.25 0-22.5 11.25-22.5 28.125s11.25 28.125 22.5 28.125 22.5-11.25 22.5-28.125-11.25-28.125-22.5-28.125z m0 0" fill="" p-id="1429"></path></svg>