<?xml version="1.0" standalone="no"?><!DOCTYPE svg PUBLIC "-//W3C//DTD SVG 1.1//EN" "http://www.w3.org/Graphics/SVG/1.1/DTD/svg11.dtd"><svg t="1516071962101" class="icon" style="" viewBox="0 0 1024 1024" version="1.1" xmlns="http://www.w3.org/2000/svg" p-id="1541" xmlns:xlink="http://www.w3.org/1999/xlink" width="200" height="200"><defs><style type="text/css"></style></defs><path d="M740.3075264 344.46703787l-381.07377067 0c-9.9361664 0-18.0745888 8.09912747-18.0745888 18.03529386 0 9.97437013 8.11877547 18.0745888 18.0745888 18.0745888l381.07377067 0c9.9547232 0 18.05494187-8.10021867 18.05494187-18.0745888C758.36246827 352.56725653 750.2622496 344.46703787 740.3075264 344.46703787zM740.3075264 464.78274133l-381.07377067 0c-9.9361664 0-18.0745888 8.11986667-18.0745888 18.07568107s8.11877547 18.03638613 18.0745888 18.03638613l381.07377067 0c9.9547232 0 18.05494187-8.08057173 18.05494187-18.03638613S750.2622496 464.78274133 740.3075264 464.78274133zM740.3075264 584.6367296l-381.07377067 0c-9.9361664 0-18.0745888 8.02272107-18.0745888 18.03638613 0 9.9547232 8.11877547 18.05385067 18.0745888 18.05385067l381.07377067 0c9.9547232 0 18.05494187-8.09912747 18.05494187-18.05385067C758.36246827 592.6790976 750.2622496 584.6367296 740.3075264 584.6367296zM283.0299168 584.6367296l-22.05757013 0c-9.97437013 0-18.01564693 8.02272107-18.01564694 18.03638613 0 9.9547232 8.0412768 18.05385067 18.01564694 18.05385067l22.05757013 0c9.99401813 0 18.0745888-8.09912747 18.0745888-18.05385067C301.1045056 592.6790976 293.02502613 584.6367296 283.0299168 584.6367296zM740.3075264 704.5081824l-381.07377067 0c-9.9361664 0-18.0745888 8.062016-18.0745888 18.03529387 0 9.9558144 8.11877547 18.03638613 18.0745888 18.03638613l381.07377067 0c9.9547232 0 18.05494187-8.08057173 18.05494187-18.03638613C758.36246827 712.53090347 750.2622496 704.5081824 740.3075264 704.5081824zM283.0299168 704.5081824l-22.05757013 0c-9.97437013 0-18.01564693 8.062016-18.01564694 18.03529387 0 9.9558144 8.0412768 18.03638613 18.01564694 18.03638613l22.05757013 0c9.99401813 0 18.0745888-8.08057173 18.0745888-18.03638613C301.1045056 712.53090347 293.02502613 704.5081824 283.0299168 704.5081824zM283.0299168 464.28064l-22.05757013 0c-9.97437013 0-18.01564693 8.10021867-18.01564694 18.05603307 0 9.9558144 8.0412768 18.05603307 18.01564694 18.05603306l22.05757013 0c9.99401813 0 18.0745888-8.10021867 18.0745888-18.05603306C301.1045056 472.38085867 293.02502613 464.28064 283.0299168 464.28064zM283.0299168 343.9834912l-22.05757013 0c-9.97437013 0-18.01564693 8.06092373-18.01564694 18.03638613 0 9.97437013 8.0412768 18.03529387 18.01564694 18.03529387l22.05757013 0c9.99401813 0 18.0745888-8.06092373 18.0745888-18.03529387C301.1045056 352.02586027 293.02502613 343.9834912 283.0299168 343.9834912zM866.6178944 56.6456608L156.70208427 56.6456608c-29.32604587 0-53.18026773 23.87386987-53.18026774 53.21847147l0 802.14325973c0 29.3456928 23.87386987 53.19882347 53.18026774 53.19882347l709.91581013 0c29.30639787 0 53.17917653-23.85422293 53.17917653-53.19882347L919.79707093 109.86522347C919.79597973 80.51953067 895.92320107 56.6456608 866.6178944 56.6456608zM881.63730027 912.0084832c0 8.27377173-6.7270784 15.00085013-15.00085014 15.00085013L156.70208427 927.00933333c-8.29341867 0-15.00085013-6.7467264-15.00085014-15.00085013L141.70123413 109.86522347c0-8.29341867 6.7270784-15.00085013 15.00085014-15.00085014l709.91581013 0c8.29341867 0 15.00085013 6.7270784 15.00085013 15.00085014l0 802.14325973L881.63730027 912.0084832zM418.40650453 226.1608352l182.52507947 0c13.80235413 0 25.0341632-11.27001173 25.0341632-25.09201387 0-13.82200107-11.23180907-25.07236587-25.0341632-25.07236586L418.40650453 175.9964544c-13.84164907 0-25.0341632 11.251456-25.0341632 25.07236587C393.3723424 214.8908224 404.56485547 226.1608352 418.40650453 226.1608352z" p-id="1542"></path></svg>