<?xml version="1.0" standalone="no"?><!DOCTYPE svg PUBLIC "-//W3C//DTD SVG 1.1//EN" "http://www.w3.org/Graphics/SVG/1.1/DTD/svg11.dtd"><svg t="1522216393166" class="icon" style="" viewBox="0 0 1024 1024" version="1.1" xmlns="http://www.w3.org/2000/svg" p-id="1317" xmlns:xlink="http://www.w3.org/1999/xlink" width="64" height="64"><defs><style type="text/css"></style></defs><path d="M708.875 62L315.125 62C216.9125 62 136.99999971 138.725 136.99999971 233.01874971L136.99999971 650.63750029C136.99999971 666.16250029 149.59999971 678.76250029 165.12499971 678.76250029 180.64999971 678.76250029 193.24999971 666.16250029 193.24999971 650.63750029L193.24999971 233.01874971C193.24999971 169.73749971 247.92499971 118.25 315.125 118.25L708.875 118.25C776.07500029 118.25 830.75000029 169.73749971 830.75000029 233.01874971L830.75000029 782.80624971C830.75000029 870.14375 796.58749971 905.75 712.83124971 905.75L311.1875 905.75C226.32499971 905.75 193.24999971 871.28749971 193.24999971 782.80624971 193.24999971 767.28124971 180.64999971 754.68124971 165.12499971 754.68124971 149.59999971 754.68124971 136.99999971 767.28124971 136.99999971 782.80624971 136.99999971 901.71874971 195.61249971 962 311.1875 962L712.83124971 962C828.40625 962 887.00000029 901.71874971 887.00000029 782.80624971L887.00000029 233.01874971C887.00000029 138.725 807.0875 62 708.875 62ZM751.31937529 217.23687529C743.87562471 203.586875 726.73812529 198.65562471 713.144375 206.08062471 523.88187471 309.76812529 318.11937471 206.793125 316.075625 205.74312471 302.33187529 198.636875 285.363125 204.05562471 278.23812471 217.85562529 271.11312529 231.67437471 276.531875 248.62437529 290.33187471 255.74937471 296.556875 258.97437529 396.19437471 309.18687471 525.213125 309.18687471 591.96312529 309.18687471 666.569375 295.74312471 740.16312471 255.41187471 753.79437529 247.94937529 758.78187471 230.868125 751.31937529 217.23687529ZM640.77875 622.46750029C656.30375 622.46750029 668.90375 609.86750029 668.90375 594.34250029 668.90375 578.81750029 656.30375 566.21750029 640.77875 566.21750029L564.39125 566.21750029 641.97874971 449.53624971C650.58499971 436.59874971 647.07875 419.1425 634.14125 410.53625 621.20375 401.93 603.76625 405.45500029 595.14125029 418.37374971L513.42875 541.27999971 431.6975 418.37374971C423.09125 405.47375 405.63500029 401.94874971 392.69750029 410.53625 379.76000029 419.1425 376.25374971 436.59874971 384.85999971 449.53624971L462.44750029 566.21750029 389.09750029 566.21750029C373.57250029 566.21750029 360.97250029 578.81750029 360.97250029 594.34250029 360.97250029 609.86750029 373.57250029 622.46750029 389.09750029 622.46750029L486.80375029 622.46750029 486.80375029 669.84875 389.09750029 669.84875C373.57250029 669.84875 360.97250029 682.44875 360.97250029 697.97375 360.97250029 713.49875 373.57250029 726.09875 389.09750029 726.09875L486.80375029 726.09875 486.80375029 798.47375029C486.80375029 813.99875029 499.40375029 826.59875029 514.92875029 826.59875029 530.45375029 826.59875029 543.05375029 813.99875029 543.05375029 798.47375029L543.05375029 726.09875 640.77875 726.09875C656.30375 726.09875 668.90375 713.49875 668.90375 697.97375 668.90375 682.44875 656.30375 669.84875 640.77875 669.84875L543.05375029 669.84875 543.05375029 622.46750029 640.77875 622.46750029Z" p-id="1318"></path></svg>