<?xml version="1.0" standalone="no"?><!DOCTYPE svg PUBLIC "-//W3C//DTD SVG 1.1//EN" "http://www.w3.org/Graphics/SVG/1.1/DTD/svg11.dtd"><svg t="1516071951937" class="icon" style="" viewBox="0 0 1024 1024" version="1.1" xmlns="http://www.w3.org/2000/svg" p-id="1033" xmlns:xlink="http://www.w3.org/1999/xlink" width="200" height="200"><defs><style type="text/css"></style></defs><path d="M399.05882375 538.82352969h225.8823525v-56.47058813h-225.8823525zM399.05882375 651.76470594h225.8823525v-56.47058813h-225.8823525z" p-id="1034"></path><path d="M540.23529406 742.1176475v-282.35294156h-56.47058812v282.35294156z" p-id="1035"></path><path d="M376.47058813 397.64705844l118.58823562 118.58823562 39.52941187-39.52941187-118.58823562-118.58823469z" p-id="1036"></path><path d="M608 358.1176475l-118.58823562 118.58823469 39.52941187 39.52941187 118.58823563-118.58823562z" p-id="1037"></path><path d="M286.1176475 115.29411781h-56.47058906c-62.1176475 0-112.94117625 50.82352969-112.94117625 112.94117625v621.17647032c0 62.1176475 50.82352969 112.94117625 112.94117625 112.94117718h564.70588312c62.1176475 0 112.94117625-50.82352969 112.94117625-112.94117718v-621.17647032c0-62.1176475-50.82352969-112.94117625-112.94117625-112.94117625h-50.82352969v56.47058813h50.82352969c33.8823525 0 56.47058813 22.58823563 56.47058813 56.47058812v621.17647032c0 28.23529406-22.58823563 56.47058813-56.47058813 56.47058812h-564.70588312c-33.8823525 0-56.47058813-22.58823563-56.47058813-56.47058812v-621.17647032c0-28.23529406 22.58823563-56.47058813 56.47058813-56.47058812h56.47058906v-56.47058813z" p-id="1038"></path><path d="M399.05882375 171.76470594h225.8823525v-56.47058813h-225.8823525v56.47058813z m-56.47058813-56.47058813c0-33.8823525 28.23529406-56.47058813 56.47058813-56.47058812h225.8823525c28.23529406 0 56.47058813 22.58823563 56.47058813 56.47058812v56.47058813c0 33.8823525-28.23529406 56.47058813-56.47058813 56.47058812h-225.8823525c-28.23529406 0-56.47058813-22.58823563-56.47058813-56.47058812v-56.47058813z" p-id="1039"></path></svg>