<?xml version="1.0" standalone="no"?><!DOCTYPE svg PUBLIC "-//W3C//DTD SVG 1.1//EN" "http://www.w3.org/Graphics/SVG/1.1/DTD/svg11.dtd"><svg t="1516072575758" class="icon" style="" viewBox="0 0 1024 1024" version="1.1" xmlns="http://www.w3.org/2000/svg" p-id="1300" xmlns:xlink="http://www.w3.org/1999/xlink" width="200" height="200"><defs><style type="text/css"></style></defs><path d="M327.68 508.16c-76.8-38.4-128.64-115.2-128.64-207.36 0-126.72 103.68-230.4 230.4-230.4s230.4 103.68 230.4 230.4c0 124.8-97.92 226.56-222.72 230.4h-1.92c-190.08 0-345.6 155.52-345.6 345.6 0 11.52-7.68 19.2-19.2 19.2s-19.2-7.68-19.2-19.2c0-174.72 117.12-322.56 276.48-368.64z m101.76-15.36c105.6 0 192-86.4 192-192s-86.4-192-192-192-192 86.4-192 192 86.4 192 192 192z m526.08 126.72l3.84 9.6-46.08 55.68c-7.68 9.6-7.68 24.96 0 34.56l46.08 53.76-3.84 9.6c-9.6 26.88-23.04 53.76-42.24 74.88l-7.68 7.68-71.04-11.52c-11.52-1.92-24.96 5.76-28.8 17.28l-24.96 69.12-9.6 1.92c-36.48 7.68-72.96 7.68-109.44 0l-11.52-1.92-23.04-67.2c-3.84-11.52-17.28-19.2-28.8-17.28l-72.96 11.52-7.68-7.68c-9.6-9.6-17.28-21.12-23.04-32.64-7.68-13.44-15.36-28.8-19.2-44.16l-3.84-9.6 48-53.76c7.68-9.6 7.68-24.96 0-32.64l-46.08-55.68 3.84-9.6c9.6-28.8 24.96-53.76 44.16-76.8l7.68-7.68 69.12 11.52c11.52 1.92 24.96-5.76 30.72-17.28l24.96-67.2 9.6-1.92c34.56-7.68 71.04-7.68 107.52 0l11.52 1.92 23.04 65.28c3.84 11.52 17.28 21.12 30.72 19.2l71.04-9.6 7.68 7.68c9.6 11.52 17.28 21.12 23.04 34.56 5.76 9.6 11.52 24.96 17.28 38.4z m-53.76-23.04c-3.84-7.68-7.68-13.44-13.44-21.12l-49.92 5.76c-30.72 3.84-61.44-15.36-71.04-44.16l-15.36-44.16c-23.04-3.84-46.08-3.84-69.12 0l-17.28 46.08c-9.6 28.8-42.24 48-72.96 42.24l-48-7.68c-11.52 13.44-19.2 30.72-26.88 46.08l32.64 38.4c19.2 23.04 19.2 59.52 0 82.56l-32.64 38.4c3.84 9.6 7.68 17.28 13.44 26.88 3.84 7.68 7.68 13.44 13.44 19.2l51.84-7.68c30.72-3.84 61.44 15.36 71.04 44.16l15.36 46.08c23.04 3.84 48 3.84 71.04 0l17.28-48c9.6-28.8 42.24-48 71.04-42.24l48 7.68c9.6-13.44 19.2-28.8 24.96-46.08l-30.72-36.48c-19.2-23.04-21.12-59.52-1.92-82.56l32.64-38.4c-3.84-7.68-7.68-15.36-13.44-24.96z m-184.32 192c-48 0-86.4-38.4-86.4-86.4s38.4-86.4 86.4-86.4 86.4 38.4 86.4 86.4-40.32 86.4-86.4 86.4z m0-38.4c26.88 0 48-21.12 48-48s-21.12-48-48-48-48 21.12-48 48 21.12 48 48 48z" p-id="1301"></path></svg>