<?xml version="1.0" standalone="no"?><!DOCTYPE svg PUBLIC "-//W3C//DTD SVG 1.1//EN" "http://www.w3.org/Graphics/SVG/1.1/DTD/svg11.dtd"><svg t="1521433718940" class="icon" style="" viewBox="0 0 1024 1024" version="1.1" xmlns="http://www.w3.org/2000/svg" p-id="1259" xmlns:xlink="http://www.w3.org/1999/xlink" width="64" height="64"><defs><style type="text/css"></style></defs><path d="M910.77178347 633.86458027c-51.9119136 188.02200853-224.19192533 326.11868053-428.72763947 326.11868053-245.59676267 0-444.70649707-199.10973547-444.70649707-444.70649707S236.44738133 70.56808213 482.044144 70.56808213c204.53571413 0 376.8146336 138.096672 428.72763947 326.11868054l-61.90265707 0c-50.01484053-154.84723947-195.34506027-266.82368-366.8238912-266.82368-212.86624533 0-385.4125888 172.54634347-385.4125888 385.4125888s172.54634347 385.4125888 385.4125888 385.4125888c171.47883093 0 316.8090496-111.97753173 366.8238912-266.82368L910.77178347 633.86458027 910.77178347 633.86458027zM882.2807552 485.6287168l103.76488533 148.23586347L778.51586987 633.86458027 882.2807552 485.6287168z" p-id="1260"></path></svg>