<?xml version="1.0" standalone="no"?><!DOCTYPE svg PUBLIC "-//W3C//DTD SVG 1.1//EN" "http://www.w3.org/Graphics/SVG/1.1/DTD/svg11.dtd"><svg t="1516072587373" class="icon" style="" viewBox="0 0 1024 1024" version="1.1" xmlns="http://www.w3.org/2000/svg" p-id="1813" xmlns:xlink="http://www.w3.org/1999/xlink" width="200" height="200"><defs><style type="text/css"></style></defs><path d="M571.64873047 511.94023437c-10.25683594 0-20.5171875 9.52470703-20.5171875 21.25019532 0 9.52646484 10.25507813 19.05292969 20.5171875 19.05292969 15.39316406 0 26.38476563-9.52646484 26.38476562-19.05292969 0-11.72460938-10.99072266-21.25019531-26.38476562-21.25019531v-1e-8zM504.22519531 413c16.12353516 0 26.38476563-10.25683594 26.38476563-25.65087891 0-16.12353516-10.26123047-25.64912109-26.38476563-25.64912109-15.38964844 0-30.04804688 9.52646484-30.04804687 25.64912109-0.00087891 15.39580078 14.65839844 25.65087891 30.04804687 25.65087891v0zM512.28652344 62.4921875c-248.42724609 0-449.81367187 201.38642578-449.81367188 449.81367187 0 248.42548828 201.38642578 449.81191406 449.81367188 449.81191407 248.42548828 0 449.81191406-201.38642578 449.81191406-449.81191407 0.00087891-248.42724609-201.38554687-449.81367187-449.81191406-449.81367187v0zM427.27519531 626.26572266c-27.11865234 0-46.90634766-4.39365234-72.55634765-11.72548828l-74.01972657 37.37988281 21.25722657-63.03076172c-52.03476562-36.64072266-82.81757813-82.81142578-82.81757813-139.24335938 0-99.67060547 93.80830078-175.88935547 208.13730469-175.88935546 101.13486328 0 191.27900391 60.09697266 208.86679687 145.11269531-7.32832031-1.46865234-13.92539063-2.19902344-19.78769531-2.19902344-99.67060547 0-176.61972656 74.75009766-176.61972656 164.89423828 0 15.38789063 2.19902344 29.31240234 5.86318359 43.97167969-5.86318359 0.72861328-12.46113281 0.72861328-18.3243164 0.72861328v0zM732.88144531 698.08554688l14.65488282 52.77041015-55.69716797-31.51230469c-21.25195313 4.39365234-41.77353516 10.99072266-63.02548828 10.99072266-98.20634766 0-175.88935547-67.42177734-175.88935547-150.96884766 0-83.54707031 77.68476562-150.97060547 175.88935546-150.97060546 93.07177734 0 176.61972656 67.42353516 176.61972657 150.97060546 0 46.90019531-31.51230469 88.67373047-72.55195313 118.72089844v0zM359.11689453 361.7c-15.38964844 0-31.51230469 9.52646484-31.51230469 25.64912109 0 15.39492188 16.12177734 25.65527344 31.51230469 25.65527344 14.65927734 0 26.38476563-10.26123047 26.38476563-25.65527344 0-16.12177734-11.72548828-25.64912109-26.38476563-25.64912109v0zM686.71162109 511.94023437c-10.99511719 0-20.52158203 9.52470703-20.52158203 21.25019532 0 9.52646484 9.52646484 19.05292969 20.52158203 19.05292969 14.65488281 0 25.64912109-9.52646484 25.6491211-19.05292969 0-11.72460938-10.99423828-21.25019531-25.6491211-21.25019531v-1e-8zM686.71162109 511.94023437z" p-id="1814"></path></svg>