<?xml version="1.0" standalone="no"?><!DOCTYPE svg PUBLIC "-//W3C//DTD SVG 1.1//EN" "http://www.w3.org/Graphics/SVG/1.1/DTD/svg11.dtd"><svg t="1516071958037" class="icon" style="" viewBox="0 0 1024 1024" version="1.1" xmlns="http://www.w3.org/2000/svg" p-id="1291" xmlns:xlink="http://www.w3.org/1999/xlink" width="200" height="200"><defs><style type="text/css"></style></defs><path d="M220.07112558 950.45347988L220.07112558 950.45347988C155.59084883 950.45347988 103.3049208 898.16755185 103.3049208 833.68834385L103.3049208 191.48009873C103.3049208 126.99661484 155.59084883 74.71068682 220.07112558 74.71068682l583.85774884 0c64.47920713 0 116.76620479 52.28592802 116.76620478 116.76941191l0 116.7619289-58.38684345 0L862.30823487 191.4768916c0-32.24708701-26.13227344-58.38363721-58.37829171-58.3836372L220.07433271 133.0932544c-32.24174151 0-58.38684346 26.13655019-58.38684346 58.38363721l0 642.20717636c0 32.23746562 26.13655019 58.38684346 58.38684346 58.38684346l583.85026583 0c32.24174151 0 58.38256758-26.14082607 58.38256758-58.38684346L862.30716612 716.92213906l58.38256757 0 0 116.76192891c0 64.48348388-52.28165214 116.76941192-116.76620478 116.76941192L220.07112558 950.45347988 220.07112558 950.45347988 220.07112558 950.45347988zM220.07112558 950.45347988" p-id="1292"></path><path d="M669.66596563 353.03303252c-11.37547617-11.39685732-11.37547617-29.89951172 0-41.27498877 11.40434033-11.40434033 29.9037876-11.40434033 41.3124038 0L912.38449239 513.16095957c6.07205214 6.07632803 8.66443359 14.13997119 8.26782626 22.08602109 0.39660732 7.95460254-2.20111875 16.0225207-8.26782626 22.12771289L710.97837031 758.77760761c-11.40861622 11.40006445-29.90806435 11.40006445-41.3124038 1e-8-11.37547617-11.40434033-11.37547617-29.90806435 0-41.2781959l153.06702802-153.06275127L597.26102011 564.43666045c-16.10269717 0-29.18968067-13.0495667-29.18968066-29.18968066 0-16.09842129 13.08698262-29.18968067 29.18968067-29.18968067l225.47197353 0L669.66596563 353.03303252 669.66596563 353.03303252 669.66596563 353.03303252 669.66596563 353.03303252zM669.66596563 353.03303252" p-id="1293"></path><path d="M323.12710654 591.02433828l0-44.28108193L237.02904161 546.74325635c-18.06542403 0-27.06018575-6.53493955-27.06018575-19.68071836 0-13.09981113 8.99476172-20.48355527 27.06018575-22.13305752l59.04215507 0L195.20778271 349.94676289c-1.65377901 0-3.307558-1.61636309-4.91964521-4.91964521-3.307558-4.92285234-4.91857646-11.45458477-4.91857646-19.68071836 0-11.45458477 7.38267451-18.83725928 22.14054052-22.14481729 11.45351513 1.65805489 21.29280557 7.38374414 29.51893916 17.22196494l113.16145782 169.74485948 113.15825068-169.74485947c6.53921543-9.8382208 16.37743623-15.56391006 29.52321591-17.22196495 13.10408701 3.31183388 20.48676152 10.69023252 22.13626466 22.14481729 0 4.91964521-2.45982217 11.4919998-7.37412276 19.68071836-1.65377901 1.65377901-2.46409893 3.30328213-2.46409893 4.91964521L404.30980302 504.92948047l59.03894795 0c16.37743623 1.64950313 25.40961387 9.03324638 27.06339288 22.13305752-1.65377901 13.14577881-10.68595664 19.68071836-27.06339288 19.68071836l-86.09806493 0 0 44.27680605 86.09806494 0c16.37743623 1.65377901 25.40961387 9.03217763 27.06339287 22.14481729-1.65377901 13.14150293-10.68595664 19.6721666-27.06339287 19.6721666l-86.09806494-1e-8 0 98.40466056c-1.65377901 16.41164502-10.69023252 24.5960877-27.06018575 24.59608769-18.06863115 0-27.06339287-8.1844418-27.06339287-24.59608769L323.12710654 632.83704541 237.02904161 632.83704541c-18.06542403 0-27.06018575-6.53066279-27.06018575-19.6721666 0-13.11263964 8.99476172-20.49103828 27.06018575-22.14481728l86.09806493-1e-8L323.12710654 591.02433828 323.12710654 591.02433828zM323.12710654 591.02433828" p-id="1294"></path></svg>