<?xml version="1.0" standalone="no"?><!DOCTYPE svg PUBLIC "-//W3C//DTD SVG 1.1//EN" "http://www.w3.org/Graphics/SVG/1.1/DTD/svg11.dtd"><svg t="1516067074507" class="icon" style="" viewBox="0 0 1024 1024" version="1.1" xmlns="http://www.w3.org/2000/svg" p-id="849" xmlns:xlink="http://www.w3.org/1999/xlink" width="200" height="200"><defs><style type="text/css"></style></defs><path d="M416 720.064v-160H640a32 32 0 0 0 0-64H416v-128H640a32 32 0 0 0 0-64H429.824l-0.704-0.768 169.664-169.152a31.808 31.808 0 0 0-44.992-44.928L384 258.368 214.272 89.28a32 32 0 0 0-45.12 0 31.744 31.744 0 0 0 0 44.928L338.88 303.36l-0.704 0.704H128a32 32 0 0 0 0 64h224v128H128a32 32 0 0 0 0 64h224v224l64-64z m506.624 15.296a31.488 31.488 0 0 0-26.624-15.296c-0.704 0-1.28 0.384-1.92 0.384-0.96 0.064-1.856-0.448-2.816-0.384H800a32 32 0 0 0 0 64h15.616l-80.128 80.192-134.848-134.912a33.344 33.344 0 0 0-25.088-9.536 33.024 33.024 0 0 0-24.704 9.472L393.152 887.04a33.152 33.152 0 0 0 46.848 46.848l135.296-135.232L710.4 933.76c6.848 6.848 16 9.92 25.088 9.472a32.96 32.96 0 0 0 25.088-9.472l103.424-103.424v17.728a32 32 0 0 0 64 0v-96a30.848 30.848 0 0 0-5.376-16.704z" fill="" p-id="850"></path></svg>