<?xml version="1.0" standalone="no"?><!DOCTYPE svg PUBLIC "-//W3C//DTD SVG 1.1//EN" "http://www.w3.org/Graphics/SVG/1.1/DTD/svg11.dtd"><svg t="1516068459275" class="icon" style="" viewBox="0 0 1024 1024" version="1.1" xmlns="http://www.w3.org/2000/svg" p-id="879" xmlns:xlink="http://www.w3.org/1999/xlink" width="200" height="200"><defs><style type="text/css"></style></defs><path d="M156.92664587 417.25590857c0 198.84107852 336.13610911 506.57131945 350.33904255 520.77425289 4.73431158 4.73431158 9.46862316 7.10146672 16.57008988 7.10146672s11.8357783-2.36715514 16.57008987-7.10146672c14.20293473-14.20293473 350.33904255-321.93317437 350.33904385-520.77425289 0-73.38182623-21.30440145-142.02934217-61.54604922-203.5753901-7.10146672-11.8357783-21.30440145-14.20293473-33.14017976-7.10146802-11.8357783 7.10146672-14.20293473 21.30440145-7.10146672 33.14017976 35.50733489 52.07742477 54.44458121 113.62347399 54.44458121 177.53667836 0 153.86512047-253.28565973 407.15078019-319.56601923 471.06398326C457.55541879 822.03953232 204.26975907 571.12102774 204.26975907 417.25590857c0-175.16952192 144.39649731-319.56601923 319.56601923-319.56601924 73.38182623 0 144.39649731 26.03871303 201.20823495 71.01467109 9.46862316 9.46862316 26.03871303 7.10146672 33.14017976-2.36715644 7.10146672-9.46862316 7.10146672-26.03871303-2.36715644-33.14017975-66.28035951-52.07742477-146.76365375-82.85044938-231.98125827-82.85044939C322.62754464 50.34677484 156.92664587 213.68051847 156.92664587 417.25590857z" fill="" p-id="880"></path><path d="M374.70496941 436.19315358c0 82.85044938 66.28035951 149.13080889 149.13080889 149.13080889s149.13080889-66.28035951 149.13080889-149.13080889-66.28035951-149.13080889-149.13080889-149.13080889-149.13080889 66.28035951-149.13080889 149.13080889z m250.91850458 0c0 56.81173635-44.97595805 101.7876944-101.78769569 101.7876944s-101.7876944-44.97595805-101.7876944-101.7876944 44.97595805-101.7876944 101.7876944-101.7876944 101.7876944 44.97595805 101.78769569 101.7876944z" fill="" p-id="881"></path></svg>