<?xml version="1.0" standalone="no"?><!DOCTYPE svg PUBLIC "-//W3C//DTD SVG 1.1//EN" "http://www.w3.org/Graphics/SVG/1.1/DTD/svg11.dtd"><svg t="1516067081155" class="icon" style="" viewBox="0 0 1024 1024" version="1.1" xmlns="http://www.w3.org/2000/svg" p-id="1093" xmlns:xlink="http://www.w3.org/1999/xlink" width="200" height="200"><defs><style type="text/css"></style></defs><path d="M653.33333375 781.33333344h-266.66666719v133.33333312h-240v53.33333344h746.66666719v-53.33333344h-240zM898.66666625 61.33333344H141.33333313c-42.66666656 0-74.66666625 31.99999969-74.66666625 74.66666625v493.33333406c0 40.00000031 34.66666688 74.66666625 74.66666625 74.66666625h754.66666687c42.66666656 0 74.66666625-31.99999969 74.66666625-74.66666625V135.99999969c2.66666625-40.00000031-31.99999969-74.66666625-72-74.66666625z m24 568.00000031c0 13.33333313-10.66666687 24-24 24H141.33333313c-13.33333313 0-24-10.66666687-24.00000001-24V135.99999969c0-13.33333313 10.66666687-24 24-24h754.66666688c13.33333313 0 24 10.66666687 24 24v493.33333406z" p-id="1094"></path><path d="M680 461.33333375h-373.33333312v-106.66666688h53.33333343v-160.00000031h-160.00000031v160.00000031h53.33333344v159.99999938h426.66666656v53.33333344h160.00000031v-159.99999938h-160.00000031zM546.66666688 221.33333375h293.33333343v53.3333325h-293.33333343z" p-id="1095"></path></svg>