<?xml version="1.0" standalone="no"?><!DOCTYPE svg PUBLIC "-//W3C//DTD SVG 1.1//EN" "http://www.w3.org/Graphics/SVG/1.1/DTD/svg11.dtd"><svg t="1516071955603" class="icon" style="" viewBox="0 0 1024 1024" version="1.1" xmlns="http://www.w3.org/2000/svg" p-id="1162" xmlns:xlink="http://www.w3.org/1999/xlink" width="200" height="200"><defs><style type="text/css"></style></defs><path d="M872.3442304 281.11493547L154.4203168 281.11493547c-64.4461184 0-116.87094827 52.4248288-116.87094827 116.87094827l0 442.4415712c0 64.44590613 52.4248288 116.87094827 116.87094827 116.87094826l717.92370133 0c64.4303424 0 116.87094827-52.42504213 116.87094827-116.87094826L989.21496533 397.98588374C989.21496533 333.523136 936.77436053 281.11493547 872.3442304 281.11493547L872.3442304 281.11493547zM922.43144533 840.42745494c0 27.61498347-22.4715904 50.0874272-50.0874272 50.0874272L154.4203168 890.51488214c-27.61498347 0-50.0874272-22.473296-50.0874272-50.0874272L104.33288853 397.98588374c0-27.6158368 22.47244373-50.0874272 50.0874272-50.0874272l717.92370134 0c27.6158368 0 50.0874272 22.4715904 50.0874272 50.0874272L922.43144533 840.42745494 922.43144533 840.42745494zM668.77110613 591.12405654c14.42563307 0 26.163168-11.72090667 26.163168-26.163168 0-14.44226133-11.73774827-26.178944-26.163168-26.178944l-97.92102293 0 99.8589088-99.84121387c10.21707307-10.23391467 10.21707307-26.79719147 0-37.0151168-10.21813867-10.23391467-26.78034987-10.23391467-37.0151168 0l-118.89240427 118.9258752-118.92502186-118.9258752c-10.21813867-10.23391467-26.78034987-10.23391467-37.0151168 0-10.21707307 10.20129707-10.21707307 26.78120213 0 37.0151168l99.8589088 99.84121387-100.74278934 0c-14.45910293 0-26.163168 11.73668267-26.163168 26.178944 0 14.44226133 11.70427733 26.163168 26.163168 26.163168l129.22566507 0 0 57.66778133-129.22566507 0c-14.45910293 0-26.163168 11.72090667-26.163168 26.1800096 0 14.44226133 11.70427733 26.1446208 26.163168 26.1446208l129.22566507 0 0 123.2988032c0 14.44226133 11.70427733 26.163168 26.163168 26.163168 14.44226133 0 26.1614624-11.72090667 26.1614624-26.163168l0-123.2988032 129.22566507 0c14.4245664 0 26.163168-11.70321173 26.163168-26.1446208 0-14.45910293-11.73774827-26.1800096-26.163168-26.1800096l-129.22566507 0 0-57.66778133L668.77110613 591.12405654 668.77110613 591.12405654zM157.54331947 239.6414016l711.66213333 0c18.43230293 0 33.3913344-14.95817813 33.3913344-33.3913344 0-18.4489312-14.95988373-33.39218667-33.3913344-33.39218666l-711.66213333 0c-18.43230293 0-33.39218667 14.94240213-33.39218667 33.39218666C124.15091947 224.68322347 139.11101653 239.6414016 157.54331947 239.6414016L157.54331947 239.6414016zM246.24818987 132.52192214l534.26837973 0c18.4331552 0 33.39218667-14.95988373 33.39218667-33.3913344 0-18.4489312-14.95817813-33.3913344-33.39218667-33.3913344L246.2479776 65.73925334c-18.43230293 0-33.39218667 14.94325547-33.39218667 33.3913344C212.85579093 117.5620384 227.79904533 132.52192214 246.24818987 132.52192214L246.24818987 132.52192214z" p-id="1163"></path></svg>